
        <svg xmlns="http://www.w3.org/2000/svg" xmlns:xlink="http://www.w3.org/1999/xlink" version="1.1" width="3190.09900990099" 
        height="3190.09900990099" viewBox="0 0 3190.09900990099 3190.09900990099">
			
			<g transform="scale(9.504950495049505) translate(10, 10)">
				<defs id="SvgjsDefs3442"></defs><g id="SvgjsG3443" featureKey="rootContainer" transform="matrix(6.3125,0,0,6.3125,0,0)" fill="#355c7d"><path xmlns="http://www.w3.org/2000/svg" d="M50 25c0 8.88-3.62 15.67-10.6 20.11C35.53 47.58 29.93 50 25 50c-8.63 0-14.24-1.37-18.73-8C3.57 38 0 30.2 0 25c0-6.85 1.76-14.06 6.22-18.58S18.04 0 25 0c9.5 0 16.77 5.3 21 13.11 1.88 3.53 4 7.58 4 11.89z"></path></g><g id="SvgjsG3444" featureKey="nameLeftFeature-0" transform="matrix(0.94315772809906,0,0,0.94315772809906,57.057870304524094,134.5679183438415)" fill="#ffffff"><path d="M8.68 24.16 c0.36 -2.2 0.36 -4.32 -0.16 -6.68 c-0.08 -0.28 -0.44 -0.08 -0.52 0.16 c-0.4 1.24 -0.56 5.76 -0.16 7.2 c0.24 0.8 0.8 -0.36 0.84 -0.68 z M10.68 24.439999999999998 c-0.2 1.44 -3.6 4.64 -4.76 1.04 c-0.6 -1.84 -0.52 -6.68 -0.08 -8.24 c0.48 -1.56 3.6 -2.88 4.36 -0.08 c0.72 2.6 0.8 4.88 0.48 7.28 z M13.8 24.8 c0 -1.44 -0.12 -12.44 -2.16 -13.6 c-0.96 -0.56 -6.88 -0.36 -9.8 0.36 c-0.2 1.32 -0.4 3.52 -0.4 5 l1.56 -0.2 c0.32 7.36 0.36 17.2 0.6 22.8 c0.84 0 1.88 -0.24 2.68 -0.68 c0.12 -2.08 -0.04 -5.44 -0.08 -7.6 c2.48 -0.48 5.08 -1.72 6.16 -2.64 c1.32 -1.12 1.44 -2.2 1.44 -3.44 z M15.68 24.52 c-0.04 1.6 -0.36 3.4 -2.32 5.12 c-1.2 1.04 -3.56 2.36 -5.4 2.96 c0 1.88 -0.04 5.04 -0.28 7.32 c-1.84 1.32 -4.16 2 -6.44 1.4 c-0.08 -5.92 0.24 -15.88 0.24 -22.64 l-1.52 0.24 c-0.12 -2.64 0.28 -6.76 0.84 -9 c3.2 -1.16 10.56 -1.96 12.32 -0.92 c2.2 1.28 2.6 13.88 2.56 15.52 z M28.28 35.24 c-2.4 0.28 -5.96 0.44 -5.96 0.44 c-0.12 -2.44 -0.28 -4.96 0 -7.76 l5.08 -1.08 c0.08 -1 0.12 -2.32 0.08 -3.36 l-5.24 0.2 c-0.08 -2.64 0.04 -5.72 0.44 -8.52 l5.56 -0.64 c0.04 -1.24 0.04 -2.88 -0.12 -4.08 c-5 0.12 -8.32 0.6 -9.6 0.8 c-0.24 1.12 -0.36 3.08 -0.32 4.44 c0.32 0 0.72 0 1.56 0.16 c-0.36 10.08 -0.28 17.48 0.04 23.56 c2.88 0.12 6.36 -0.44 8.44 -1.2 c0.04 -0.96 0.08 -2.12 0.04 -2.96 z M30.240000000000002 15.920000000000002 l-5.52 0.84 c-0.2 1.52 -0.36 3.36 -0.4 4.76 l5 -0.4 c0.12 2.28 0 5.08 -0.4 7.28 l-4.92 1.24 c-0.12 1.4 -0.08 2.92 -0.08 4.08 c1.2 -0.12 3.28 -0.36 5.68 -0.84 c0.24 2 0.12 4.52 -0.12 6.76 c-3.04 1.44 -7.68 2.4 -12.04 2.12 c-0.16 -7 0 -14.6 0.6 -24.04 c-0.24 0 -0.6 0 -1.24 0.04 c-0.24 -2.52 0.04 -6.24 0.84 -8.36 c0 0 4.56 -1.12 12.6 -1.52 c0.36 2.48 0.36 5.52 0 8.04 z M39.32 16.08 l3.76 -0.72 c0.04 -1.2 0.08 -3.04 -0.08 -4.44 c-2.68 0.2 -7.48 0.64 -10 1.16 c-0.08 1.28 -0.12 2.96 -0.04 4.4 l3.32 -0.2 c-0.08 5.88 -0.08 16.8 0.28 22.76 c0.76 0 1.72 -0.12 2.52 -0.24 c-0.36 -7.44 -0.08 -15.88 0.24 -22.72 z M45.120000000000005 16.64 l-3.68 0.88 c-0.52 6.36 -1.04 14.84 -0.88 23.08 c-2.24 0.68 -4.36 0.88 -6.36 0.8 c-0.24 -6.28 0.08 -17.28 0.32 -22.96 l-3.04 0.28 c-0.16 -3.04 -0.04 -5.88 0.28 -8.28 c3.36 -1.04 10.04 -1.84 13.36 -2.2 c0.4 2.8 0.28 6.32 0 8.4 z"></path></g><g id="SvgjsG3445" featureKey="inlineSymbolFeature-0" transform="matrix(0.7278582165700399,0,0,0.7278582165700399,112.75635527303214,121.36351871747667)" fill="#ffffff"><path xmlns="http://www.w3.org/2000/svg" d="M63.103,73.065c1.885,2.118,4.508,3.197,7.143,3.197c2.261,0,4.53-0.795,6.347-2.413c1.959-1.744,3.084-4.147,3.186-6.729  c2.574,0.201,5.094-0.641,7.053-2.385c3.935-3.503,4.287-9.554,0.784-13.489c-3.278-3.683-8.788-4.228-12.708-1.41L54.118,26.48  c1.474-1.613,2.344-3.667,2.473-5.879c0.148-2.548-0.705-5-2.402-6.907c-1.697-1.906-4.035-3.037-6.582-3.186  c-2.552-0.147-5.001,0.705-6.907,2.402c-1.959,1.744-3.084,4.147-3.186,6.729c-2.58-0.204-5.094,0.641-7.053,2.384  c-1.906,1.697-3.038,4.035-3.186,6.583c-0.148,2.548,0.705,5.001,2.402,6.907s4.035,3.038,6.582,3.186  c2.218,0.129,4.369-0.502,6.172-1.813l20.784,23.349c-1.499,1.62-2.383,3.69-2.513,5.922C60.554,68.706,61.406,71.159,63.103,73.065  z M65.221,61.066l0.044-0.04c0.409-0.368,0.444-0.997,0.078-1.408L43.292,34.846c-0.176-0.198-0.446-0.298-0.711-0.314  c-0.017-0.001-0.033-0.001-0.049-0.001c-0.25,0-0.51,0.107-0.696,0.272c-1.507,1.342-3.442,2.021-5.461,1.899  c-2.014-0.117-3.863-1.012-5.204-2.519c-1.342-1.507-2.017-3.446-1.899-5.461s1.012-3.863,2.519-5.205  c1.793-1.597,4.178-2.233,6.548-1.747c0.31,0.064,0.63-0.022,0.866-0.232s0.358-0.519,0.331-0.833  c-0.209-2.408,0.7-4.705,2.494-6.301c1.507-1.342,3.439-2.019,5.461-1.899c2.015,0.117,3.863,1.011,5.204,2.519  c1.342,1.507,2.017,3.447,1.899,5.461c-0.117,2.014-1.012,3.863-2.519,5.204c-0.198,0.176-0.318,0.424-0.333,0.689  c-0.015,0.265,0.075,0.525,0.251,0.723l22.051,24.772c0.367,0.411,0.999,0.449,1.412,0.082c1.507-1.341,3.446-2.014,5.461-1.899  c2.014,0.117,3.863,1.012,5.204,2.519c1.342,1.507,2.016,3.446,1.899,5.461c-0.117,2.015-1.011,3.863-2.519,5.204  c-1.794,1.597-4.182,2.231-6.548,1.747c-0.31-0.061-0.63,0.023-0.866,0.232c-0.236,0.21-0.358,0.519-0.331,0.833  c0.209,2.408-0.7,4.705-2.494,6.301c-3.111,2.77-7.897,2.491-10.666-0.62C61.828,68.624,62.106,63.839,65.221,61.066z"></path><path xmlns="http://www.w3.org/2000/svg" d="M9.952,66.702c0,12.642,10.285,22.926,22.926,22.926s22.926-10.285,22.926-22.926c0-12.642-10.285-22.927-22.926-22.927  S9.952,54.06,9.952,66.702z M32.878,45.775c0.523,0,1.036,0.041,1.549,0.078c-1.293,4.549-4.109,8.496-8.037,11.172  c-3.963,2.7-8.714,3.871-13.465,3.375C15.607,51.932,23.536,45.775,32.878,45.775z M32.878,87.628c-0.56,0-1.11-0.041-1.659-0.084  c1.295-4.543,4.109-8.484,8.033-11.157c3.993-2.72,8.788-3.891,13.571-3.365C50.137,81.481,42.214,87.628,32.878,87.628z   M53.805,66.702c0,1.497-0.165,2.955-0.465,4.364c-5.357-0.661-10.742,0.624-15.213,3.668c-4.396,2.994-7.527,7.436-8.911,12.552  c-9.795-1.74-17.264-10.297-17.264-20.584c0-1.488,0.162-2.938,0.459-4.339c0.876,0.104,1.752,0.168,2.625,0.168  c4.43,0,8.771-1.326,12.48-3.853c4.404-2.999,7.538-7.451,8.919-12.578C46.282,47.798,53.805,56.378,53.805,66.702z"></path></g><g id="SvgjsG3446" featureKey="nameRightFeature-0" transform="matrix(0.9497530119186044,0,0,0.9497530119186044,189.81995129302194,133.90977139874622)" fill="#ffffff"><path d="M21.32 18.28 c-0.28 -2.88 -0.68 -6.24 -1.32 -6.76 c-0.8 -0.64 -6.64 -1.12 -8 0 c-1.52 1.24 -1.2 12.68 0 13.64 c0.84 0.68 1.92 1.08 2.88 1.56 c1.28 0.64 2.36 1.36 2.76 2.24 c0.84 1.8 0.76 7.16 -1.6 7.44 c-1.76 0.2 -2.48 -1.28 -2.76 -2.28 c-0.2 -0.72 -0.28 -1.44 -0.32 -2.16 c-0.68 0.04 -1.4 0.2 -2.28 0.56 c-0.08 3.24 0.12 6.36 1.36 6.88 c2.16 0.88 8.32 -1.2 9.04 -2.48 c0.96 -1.72 0.56 -10.56 -0.84 -11.32 c-1.84 -1 -5.88 -2.08 -6.32 -4.36 c-0.4 -2.08 0.08 -6.88 2 -6.88 c1.12 0 2.2 0.28 2.96 4.28 c0.92 -0.08 1.76 -0.16 2.44 -0.36 z M23.52 19.12 c-1.92 1.12 -3.88 1.28 -6.16 1.48 c-0.48 -3.88 -0.4 -4.44 -1.12 -4.4 c-1.2 0.04 -0.36 3.24 -0.16 4.56 c0.08 0.6 0.8 0.92 1.56 1.28 c1.12 0.52 2.44 1 3.52 1.6 c2.92 1.6 2.16 12.36 1.08 14.28 c-1.36 2.4 -8.56 4.92 -11.4 3.8 c-1.64 -0.64 -2.48 -5.04 -2.16 -10.16 c2.44 -1.24 3.68 -1.48 6 -1.4 c0.04 1.28 0.04 1.72 0.08 2.24 c0.04 0.4 0.12 2.32 0.76 2.2 c1.4 -0.24 0.6 -3.56 0.16 -4.68 c-0.36 -0.88 -3.76 -2.08 -4.88 -3 c-2.04 -1.68 -1.96 -14.88 0.6 -17.08 c2.2 -1.88 8.92 -1.48 10.28 -0.36 c0.8 0.64 1.6 5.32 1.84 9.64 z M38.2 11 c-1.12 -0.04 -2.32 0.16 -3.32 0.44 c0.08 2.8 0.36 6.72 0.28 10.52 c0 0.84 -1.16 1.76 -2.52 1.96 c-1.48 0.2 -2.76 -0.52 -2.8 -1.6 c-0.08 -1.84 0.04 -7.32 0.2 -9.96 l-1.16 0 c-0.6 0 -1.2 0.08 -1.72 0.16 c-0.4 6.4 -0.44 18.6 0.08 27.2 c0.84 -0.04 1.8 -0.2 2.6 -0.44 c-0.08 -2.16 0 -6.72 0.24 -8.56 c0.16 -1.28 1.64 -1.88 2.4 -2.04 c1.44 -0.32 2.72 0.32 2.8 1.28 c0.2 2.04 0.16 6.08 0.08 8.84 c0.76 0 1.68 -0.12 2.52 -0.28 c0.6 -8.32 0.44 -20.88 0.32 -27.52 z M40.599999999999994 8.64 c-0.16 7.56 -0.4 21.92 -1.52 31.6 c-2.28 0.64 -4.12 0.84 -6.36 0.72 c0 -0.08 0.04 -7.32 -0.08 -9.12 c-0.08 -1.28 -0.64 -1.16 -0.76 -0.72 c-0.48 2.04 -0.6 7.84 -0.44 9.88 c-1.96 0.76 -4 1.4 -6.52 1.16 c-0.32 -10.04 0.28 -24 1.04 -31.28 c1.56 -0.48 2.56 -0.6 3.44 -0.68 s1.72 -0.04 3.36 -0.04 c-0.4 2.8 -0.8 9.12 -0.76 11.24 c0 0.92 1.24 0.32 1.28 -0.36 c0.24 -4.2 0.04 -7.76 0.08 -11.32 c2.28 -1 4.6 -1.4 7.24 -1.08 z M49.6 17.64 c-0.12 -0.72 -1.04 -0.32 -1.16 0.56 c-0.44 3.08 -0.84 12.04 -0.6 14.48 c0.08 0.8 1.52 0.64 1.64 -0.68 c0.28 -3.68 0.52 -12.12 0.12 -14.36 z M51.72 32 c-0.08 1.8 -1.36 2.76 -2.6 2.96 c-1.04 0.2 -2.76 -0.16 -3 -1.8 c-0.36 -2.6 -0.32 -11.96 0.04 -15.08 c0.16 -1.48 1.16 -2.52 2.28 -2.84 c1.2 -0.32 2.52 0.24 2.84 1.76 c0.52 2.52 0.6 11.44 0.44 15 z M54.2 36.72 c0.72 -2.4 0.68 -22.44 -0.28 -24.56 c-0.68 -1.48 -9.04 -1.56 -10.24 0.56 c-1.04 1.84 -1.28 23.44 0.48 25.76 c1.52 2 9.52 0.08 10.04 -1.76 z M56.12 10.8 c1.12 2.72 0.32 23.72 -0.56 26.48 c-1.04 3.36 -10.96 6.32 -13.36 2.92 c-2.2 -3.08 -0.96 -26.04 0.4 -28.48 c1.84 -3.28 12.12 -4.28 13.52 -0.92 z M66.28 24.16 c0.36 -2.2 0.36 -4.32 -0.16 -6.68 c-0.08 -0.28 -0.44 -0.08 -0.52 0.16 c-0.4 1.24 -0.56 5.76 -0.16 7.2 c0.24 0.8 0.8 -0.36 0.84 -0.68 z M68.28 24.439999999999998 c-0.2 1.44 -3.6 4.64 -4.76 1.04 c-0.6 -1.84 -0.52 -6.68 -0.08 -8.24 c0.48 -1.56 3.6 -2.88 4.36 -0.08 c0.72 2.6 0.8 4.88 0.48 7.28 z M71.4 24.8 c0 -1.44 -0.12 -12.44 -2.16 -13.6 c-0.96 -0.56 -6.88 -0.36 -9.8 0.36 c-0.2 1.32 -0.4 3.52 -0.4 5 l1.56 -0.2 c0.32 7.36 0.36 17.2 0.6 22.8 c0.84 0 1.88 -0.24 2.68 -0.68 c0.12 -2.08 -0.04 -5.44 -0.08 -7.6 c2.48 -0.48 5.08 -1.72 6.16 -2.64 c1.32 -1.12 1.44 -2.2 1.44 -3.44 z M73.28 24.52 c-0.04 1.6 -0.36 3.4 -2.32 5.12 c-1.2 1.04 -3.56 2.36 -5.4 2.96 c0 1.88 -0.04 5.04 -0.28 7.32 c-1.84 1.32 -4.16 2 -6.44 1.4 c-0.08 -5.92 0.24 -15.88 0.24 -22.64 l-1.52 0.24 c-0.12 -2.64 0.28 -6.76 0.84 -9 c3.2 -1.16 10.56 -1.96 12.32 -0.92 c2.2 1.28 2.6 13.88 2.56 15.52 z"></path></g>
			</g>
		</svg>
	