
        <svg xmlns="http://www.w3.org/2000/svg" xmlns:xlink="http://www.w3.org/1999/xlink" version="1.1" width="3272.7272727272725" 
        height="2575.1489601639764" viewBox="0 -68.18181818181817 3272.7272727272725 2575.1489601639764">
			<rect fill="#4ecca3" width="3272.7272727272725" height="2575.1489601639764"/>
			<g transform="scale(13.636363636363635) translate(10, 10)">
				<defs id="SvgjsDefs1287"></defs><g id="SvgjsG1288" featureKey="symbolFeature-0" transform="matrix(1.0392602085359857,0,0,1.0392602085359857,58.53698610429552,-9.857168977788898)" fill="#393e46"><path xmlns="http://www.w3.org/2000/svg" d="M23.8213673,81.5020676c1.5327454-0.2832108,2.6313534-0.8942337,2.6313534-0.8942337  c-5.7800922,1.1912842-7.539135-2.4586945-7.9899979-3.8087845c2.4446621-0.771759,4.0575809-1.1989746,7.7023678,1.9109268  c4.2052422,3.5838394,7.5583591,1.5242844,10.9099407-0.5352631c0,0-6.0110035,2.9591599-9.8470955-0.5137405  c-4.2819557-3.8793488-6.120018-4.5159378-8.9365215-3.3165894c-2.8145828,1.2032013-3.4023399,1.7352066-4.6620665-0.7394485  c-1.2612648-2.4735031-0.1276646-4.531517-0.8675041-11.6361313c-0.0959406-0.923069-0.0678701-1.7948036,0.0392227-2.6217422  c0.3876076,1.3777809,1.2839518,2.8830299,3.4400225,2.7726707c3.911459-0.2016869,3.0608749-0.4060669,5.4741974,0.728878  c2.4119759,1.1336021,6.2263412-0.7736778,5.5664845-4.8174171c0,0-0.0213413-5.2896194-4.7326279-6.3557358  c-2.998579-0.6769676-4.0223961-0.7617569-5.1636868-0.5468025c0.43606-0.3868408,0.7521439-0.6265945,0.7521439-0.6265945  c15.501255-14.9936714,16.362606-24.0053711,16.362606-24.0053711c-1.8709412,4.4569168-4.7541618,8.7404099-7.73563,12.4671021  c-0.3389645-0.3539619-0.8107853-0.8907661-1.3054867-1.6204185c-0.8980751-1.3260574-2.4500446-1.4733315-4.5697784,0.6890831  c-2.1193466,2.1641464-1.5458183,1.7596169-2.0441723,2.6609612c0,0,0.5091209,1.6919403,3.5994129,0.6921577  c1.3297119-0.4306755,2.1631851-0.506237,2.7032585-0.4616318c-2.6990299,3.1673927-5.3265362,5.7993202-7.2518883,7.6096954  c-0.404911-1.3918114-1.2414608-4.7883835-1.2810669-9.2366486c0,0-4.345212-4.8958626,2.1551094-13.3142281  c0,0-7.3047628,6.5831871-3.4471378,13.9523582c0,0-1.0007439,5.9216003-0.1113214,11.0216484  c-0.1745777,0.1490059-0.2976284,0.2528305-0.2976284,0.2528305c-0.9407568,0.2122612-1.7090521,0.5277672-2.3389158,0.914032  c-1.7002077-3.0635681-9.0301561-17.8813133-0.9790182-32.9409332c0,0-11.3898373,17.8409386-1.0157413,35.1237297  c-1.3968124,2.8811035,0.0159588,6.5456924,0.0159588,6.5456924c0.882885,5.8619995-0.8136702,9.3379745,0.0461435,12.0942993  c0.7602196,2.4371643,2.8684158,4.5759354,5.5524502,4.4007797c1.3270187,2.7019119,3.1298981,3.8258972,4.8641357,4.1635208  C27.0502834,98.259201,44.8579597,95.095459,44.8579597,95.095459  C28.1398544,96.2577133,24.4771862,84.4760361,23.8213673,81.5020676z"></path><path xmlns="http://www.w3.org/2000/svg" d="M49.5648232,80.8539352c-4.8914413,5.0342941-9.5163994,5.0142975-12.7820358,3.8868484  c4.4621086,1.9334259,10.7070999,2.8086243,15.8950119-3.0914459c6.9984818-7.9553833,11.746685-9.5335083,14.0431099-9.4871674  C62.1497841,71.6541977,58.052021,72.1173706,49.5648232,80.8539352z"></path><path xmlns="http://www.w3.org/2000/svg" d="M28.8014412,9.3171453c4.7251282,0.7861757,7.6616058,0.010767,7.6616058,0.010767  c23.6608315-5.7895131,36.3705711,5.6172438,36.3705711,5.6172438C57.110878-2.443188,36.742794,7.5084996,36.742794,7.5084996  c-4.6174583,0.7119613-8.7194538-0.4062581-8.7194538-0.4062581c-9.531971-1.0043974-13.8462267,8.805975-13.8462267,8.805975  C20.6524391,7.8251619,24.076313,8.5313549,28.8014412,9.3171453z"></path><path xmlns="http://www.w3.org/2000/svg" d="M40.443531,54.1320419c0,0-5.6295471-15.2490005,0.8646202-32.5467873  C41.3081512,21.5852547,30.4195518,34.7731628,40.443531,54.1320419z"></path><path xmlns="http://www.w3.org/2000/svg" d="M44.9827385,37.8494186c-0.9074936,2.0795479-3.634594,3.8789673-3.634594,3.8789673l0.1243935,0.8138618  c1.0889969-0.4983559,2.4133224,0.190918,2.4133224,0.190918c5.6912651,4.925087,10.4794579-0.0817108,10.4794579-0.0817108  c-1.2137756-0.3168564-1.5444717-1.043045-2.5317574-2.0595551C50.8476219,39.5751991,45.8898506,35.7698708,44.9827385,37.8494186z  "></path><path xmlns="http://www.w3.org/2000/svg" d="M87.9978333,30.474287c5.2744293,5.5339909,2.5071487,14.0600262-1.7086716,17.7496128  c-4.2160034,3.6916962-6.0386887,3.9872093-9.1364746,7.8094597c-3.4194565,4.2221603-8.6983109,12.6910896-12.7512741,10.4715767  c-5.9986992-3.2840996,1.5842667-15.149025,2.1241531-17.9978294c1.2922211-6.8292885-3.2900543-11.0775986-5.298851-11.8864594  c0,0,2.7888184,8.184185-0.9780579,22.9609795c0,0-0.3631897,1.4935226-0.2170677,3.1393204  c0.1691933,9.819603,10.9501228,6.0586853,15.3828163,0.6244774c1.8828659-2.3089218,3.3129349-3.9706764,4.6720657-5.4324722  c4.7249374,16.614666-6.952919,27.4892311-6.952919,27.4892311c12.4494171-9.0405426,10.4610062-27.0387535,9.9480362-30.5024261  c1.7738495-1.6742516,3.8151321-3.4557877,6.8437119-6.1204033C98.4509506,41.2765579,90.5465088,31.9230118,87.9978333,30.474287z"></path><path xmlns="http://www.w3.org/2000/svg" d="M61.5053101,24.4786644c0,0,7.0615463-10.2225895,18.846489-2.0087948c0,0-2.2008667-2.4440861-4.1958237-3.5300026  C76.1559753,18.939867,66.3227234,14.0947638,61.5053101,24.4786644z"></path></g><g id="SvgjsG1289" featureKey="nameFeature-0" transform="matrix(1.7221394207282334,0,0,1.7221394207282334,-3.4447842777879574,94.19185737553478)" fill="#eeeeee"><path d="M14.414 24.274 c-0.48604 0.37223 -1.0016 0.70592 -1.5833 1.1122 c0.6748 0.46136 1.2954 0.86888 1.8976 1.301 c1.3258 0.95104 2.0297 2.2841 2.0812 3.8808 c0.10531 3.2587 -1.1649 5.9104 -3.7626 7.898 c-0.30258 0.23129 -0.66428 0.41884 -1.028 0.53064 c-2.436 0.75016 -4.9356 0.992 -7.4744 0.86076 c-0.28801 -0.015 -0.5776 -0.077772 -0.85752 -0.1523 c-0.78256 -0.20902 -1.0045 -0.45608 -1.0791 -1.2792 c-0.55128 -6.0984 -0.90936 -12.199 -0.25602 -18.316 c0.20942 -1.9617 0.30988 -3.9347 0.46544 -5.902 c0.035664 -0.45164 0.097228 -0.90084 0.1418 -1.3517 c0.037266 -0.38195 0.24383 -0.55532 0.62456 -0.60676 c2.9763 -0.4006 5.9216 -0.21344 8.6704 0.99444 c1.8309 0.80444 2.8629 2.466 3.3429 4.4068 c0.3459 1.3987 0.30254 2.8289 0.1782 4.2512 c-0.086288 0.98792 -0.58048 1.7762 -1.3614 2.3728 z M7.3496 27.570999999999998 c0.052264 2.8455 0.04414 5.704 0.5756 8.6688 c0.67604 -0.21914 1.2901 -0.32648 1.8134 -0.60432 c2.201 -1.1678 2.6681 -3.0274 2.3185 -5.048 c-0.30988 -1.7928 -2.1828 -3.7516 -4.7076 -3.0164 z M7.2188 15.832999999999998 l0 6.8013 c2.5567 0.4654 4.752 -2.0553 3.9132 -4.432 c-0.093556 -0.26531 -0.2491 -0.546 -0.45648 -0.72744 c-0.80484 -0.7048 -1.6806 -1.3108 -2.7313 -1.5976 c-0.19688 -0.053868 -0.416 -0.02793 -0.72548 -0.04414 z M26.734 16.444 c-0.34836 0.0076952 -0.6988 0.00078124 -1.0143 0.00078124 c-0.34836 1.1548 -0.4476 6.376 -0.16648 7.8692 l3.5556 0 c0.32406 0 0.64812 -0.0073048 0.97176 0.0016016 c0.90572 0.025508 1.2237 0.35199 1.2083 1.2484 c-0.0076952 0.45204 -0.051056 0.90324 -0.049844 1.3553 c0.0028516 0.95996 -0.22113 1.2249 -1.169 1.267 c-1.1321 0.050236 -2.265 0.078984 -3.398 0.11262 c-0.28758 0.0085156 -0.57596 0.0012109 -0.93852 0.0012109 l0 7.6058 c0.26328 0 0.53916 0.0012109 0.81456 0 c1.909 -0.0089064 3.8184 -0.0085156 5.7272 -0.033633 c0.61284 -0.008086 0.98508 0.25558 1.1442 0.83036 c0.12922 0.46664 0.28516 0.93284 0.34793 1.41 c0.10328 0.7842 -0.30137 1.3164 -1.0864 1.4529 c-0.41152 0.07168 -0.83804 0.067228 -1.2581 0.078164 c-2.8811 0.07332 -5.7624 0.13488 -8.6428 0.21426 c-1.2788 0.035234 -1.6579 -0.21387 -1.7571 -1.4918 c-0.079804 -1.028 -0.011367 -2.0694 0.018203 -3.104 c0.10816 -3.7544 0.28558 -7.508 0.31637 -11.263 c0.013359 -1.6437 -0.2325 -3.2931 -0.4176 -4.934 c-0.20457 -1.8142 -0.1827 -3.6179 0.052656 -5.4244 c0.1527 -1.1722 0.58772 -1.5477 1.7822 -1.5696 c2.8808 -0.052656 5.7612 -0.1134 8.6412 -0.18226 c1.7867 -0.042928 1.7863 -0.052228 1.8045 1.6899 c0.0048436 0.48604 0.0032422 0.97212 0.015781 1.4578 c0.01457 0.57196 -0.28438 0.92596 -0.8 1.0746 c-0.401 0.11586 -0.82348 0.19891 -1.2394 0.21512 c-1.4866 0.05832 -2.9747 0.083436 -4.4624 0.11746 z M41.051199999999994 32.5068 c0.28394 0.0048436 0.56796 0.034922 0.70972 0.044648 c0.43708 0.92072 0.721 1.6761 1.1346 2.3514 c0.512 0.836 1.3679 1.1827 2.3198 1.1799 c0.32039 -0.00082032 0.69832 -0.18188 0.94944 -0.39738 c0.9944 -0.85388 1.3537 -1.9455 1.0292 -3.2304 c-0.3852 -1.5242 -1.2783 -2.7491 -2.3444 -3.8574 c-0.69628 -0.72344 -1.4307 -1.41 -2.1484 -2.1124 c-1.2322 -1.2058 -2.3335 -2.5215 -3.2477 -3.9833 c-1.0888 -1.7401 -1.5643 -3.6216 -1.1074 -5.6608 c0.11828 -0.5274 0.3034 -1.0778 0.60152 -1.5206 c1.1758 -1.7458 2.7442 -3.0108 4.8036 -3.5758 c2.9342 -0.80484 6.2464 0.94012 7.2004 3.8116 c0.23211 0.69872 0.3743 1.4408 0.448 2.174 c0.061564 0.61648 -0.13164 0.83724 -0.74448 0.93324 c-0.89356 0.14016 -1.7989 0.21062 -2.7009 0.28555 c-0.47592 0.039297 -0.80244 -0.20211 -0.96568 -0.65332 c-0.098828 -0.27383 -0.16973 -0.56064 -0.29531 -0.82108 c-0.18188 -0.3775 -0.36617 -0.76312 -0.61444 -1.0969 c-0.40344 -0.54196 -0.93 -0.91908 -1.6562 -0.81376 c-0.7522 0.10938 -1.0868 0.67364 -1.2597 1.3217 c-0.39453 1.478 -0.39613 2.9597 0.26492 4.3636 c0.22562 0.47916 0.61488 0.90572 1.0033 1.2796 c1.2601 1.2115 2.6114 2.3327 3.8212 3.5912 c1.431 1.4886 2.4409 3.2579 2.9808 5.2712 c0.2398 0.89436 0.28598 1.8155 0.012969 2.6859 c-0.36578 1.1658 -0.73276 2.3627 -1.3258 3.4187 c-1.3942 2.483 -3.895 3.4413 -6.642 2.7106 c-2.9196 -0.77648 -5.2636 -3.6184 -5.4688 -6.63 c-0.061992 -0.91176 0.17617 -1.1342 1.109 -1.0973 c0.71008 0.02793 1.4222 0.01375 2.133 0.027109 z M67.88 16.892 c-1.0321 0.067228 -2.0658 0.090428 -3.255 0.13902 c0 1.8896 -0.0097264 3.6661 0.0020312 5.4432 c0.035234 5.3408 0.078592 10.681 0.1191 16.022 c0.0016016 0.19442 0.01293 0.38926 0.00039062 0.58248 c-0.063984 0.9604 -0.4832 1.3436 -1.4286 1.2759 c-0.58004 -0.04172 -1.1609 -0.10449 -1.7353 -0.19524 c-0.48528 -0.076952 -0.82956 -0.30703 -0.84256 -0.88384 c-0.018633 -0.83848 -0.11016 -1.6753 -0.1223 -2.5134 c-0.079804 -5.566 -0.15109 -11.132 -0.21387 -16.698 c-0.009336 -0.84092 0.046172 -1.6826 0.056288 -2.5239 c0.0028516 -0.2175 -0.053048 -0.43584 -0.093164 -0.74044 c-1.1479 -0.093984 -2.2683 -0.20133 -3.3908 -0.27383 c-1.1771 -0.075744 -1.4201 -0.2475 -1.5104 -1.4222 c-0.054296 -0.70316 -0.022695 -1.425 0.072072 -2.1245 c0.10816 -0.8008 0.50392 -1.1224 1.31 -1.1516 c0.58044 -0.021055 1.1637 0.031602 1.7458 0.053868 c2.3275 0.089924 4.6556 0.16363 6.982 0.27988 c0.90004 0.04496 1.811 0.11504 2.6884 0.30543 c0.9604 0.20859 1.1483 0.52696 1.1439 1.5023 c-0.0024219 0.54844 -0.0097264 1.1046 -0.10004 1.6425 c-0.15473 0.91988 -0.49864 1.2192 -1.4278 1.2796 z M87.49360000000001 34.6244 c-0.085076 0.20535 -0.14398 0.4214 -0.27402 0.805 c1.7547 -0.061172 3.3664 -0.12476 4.9784 -0.17012 c0.51604 -0.01457 1.0341 0.0060936 1.5502 0.034024 c0.52452 0.028359 0.8518 0.29812 0.87528 0.84616 c0.038867 0.90532 0.068828 1.8114 0.089064 2.7175 c0.012539 0.55048 -0.37551 0.71816 -0.82472 0.76312 c-0.96604 0.096796 -1.9337 0.22558 -2.9018 0.23774 c-2.1042 0.026719 -4.2096 -0.0024609 -6.3144 -0.03 c-0.48324 -0.0064844 -0.96892 -0.076172 -1.4469 -0.1568 c-0.74652 -0.12559 -0.82512 -0.24144 -0.847 -1.0297 c-0.053476 -1.9301 0.30824 -3.7257 1.1086 -5.5348 c2.0407 -4.6136 3.8808 -9.3164 5.8048 -13.982 c0.34144 -0.82832 0.70032 -1.6498 1.0839 -2.551 c-0.36293 -0.022695 -0.61284 -0.052656 -0.8624 -0.051836 c-1.9106 0.0073048 -3.8212 0.016602 -5.732 0.034024 c-1.0624 0.0097264 -1.3128 -0.13203 -1.3918 -1.1572 c-0.071288 -0.9288 0.0073048 -1.8697 0.02957 -2.805 c0.011328 -0.47676 0.29363 -0.69064 0.74892 -0.70844 c0.22641 -0.0089064 0.45324 -0.01418 0.67964 -0.022695 c3.1704 -0.11664 6.3408 -0.22762 9.5108 -0.35359 c1.0321 -0.0409 1.1864 0.077772 1.2002 1.1167 c0.019024 1.425 0.059924 2.8508 0.020234 4.274 c-0.01418 0.50144 -0.1827 1.0195 -0.37469 1.4918 c-1.5959 3.9258 -3.2096 7.844 -4.8268 11.761 c-0.61732 1.495 -1.2581 2.9804 -1.8835 4.472 z M112.22100000000002 19.54 c0.01418 1.2622 0.0035547 2.5242 0.0035547 3.1565 c-0.24262 4.1248 -0.38558 7.6204 -0.67156 11.104 c-0.2475 3.014 -2.2396 4.8772 -4.9752 5.6588 c-0.50712 0.14461 -1.1224 0.17418 -1.623 0.031211 c-2.0318 -0.58044 -3.8464 -1.5291 -5.0464 -3.3781 c-0.59544 -0.91744 -0.91868 -1.9155 -1.0029 -3.0043 c-0.38156 -4.9308 -0.16606 -9.8372 0.58128 -14.722 c0.058752 -0.38316 0.15312 -0.76068 0.22078 -1.143 c0.42004 -2.3825 1.8786 -3.8318 4.1144 -4.5824 c0.24547 -0.082228 0.50392 -0.13328 0.73844 -0.2382 c1.0308 -0.46176 2.097 -0.33012 3.1343 -0.11746 c2.4457 0.50068 4.1648 2.423 4.4328 4.9104 c0.083048 0.7696 0.085076 1.5497 0.093592 2.325 z M106.87200000000001 31.942 c0.12394 -2.391 0.20168 -4.784 0.29726 -7.176 l-0.047344 -0.0036328 c0 -1.0361 0.0048436 -2.0719 -0.00125 -3.108 c-0.0068752 -1.1321 0.023086 -2.2679 -0.060744 -3.3948 c-0.033633 -0.45084 -0.29812 -0.89756 -0.5144 -1.3172 c-0.19238 -0.37348 -0.54112 -0.38117 -0.92756 -0.28316 c-0.77324 0.19644 -1.1248 0.785 -1.2536 1.4642 c-0.30742 1.6178 -0.7218 3.2469 -0.75544 4.8784 c-0.066444 3.2331 0.077344 6.4712 0.17859 9.706 c0.019024 0.60272 0.22074 1.2055 0.3852 1.7952 c0.12312 0.44108 0.45488 0.70724 0.92192 0.74488 c0.49252 0.039688 0.89756 -0.14867 1.1394 -0.58652 c0.13894 -0.25152 0.25156 -0.5302 0.31109 -0.81008 c0.13406 -0.63148 0.29324 -1.2686 0.32688 -1.9094 z M129.741 19.54 c0.01418 1.2622 0.0035547 2.5242 0.0035547 3.1565 c-0.24262 4.1248 -0.38558 7.6204 -0.67156 11.104 c-0.2475 3.014 -2.2396 4.8772 -4.9752 5.6588 c-0.50712 0.14461 -1.1224 0.17418 -1.623 0.031211 c-2.0318 -0.58044 -3.8464 -1.5291 -5.0464 -3.3781 c-0.59544 -0.91744 -0.91868 -1.9155 -1.0029 -3.0043 c-0.38156 -4.9308 -0.16606 -9.8372 0.58128 -14.722 c0.058752 -0.38316 0.15312 -0.76068 0.22078 -1.143 c0.42004 -2.3825 1.8786 -3.8318 4.1144 -4.5824 c0.24547 -0.082228 0.50392 -0.13328 0.73844 -0.2382 c1.0308 -0.46176 2.097 -0.33012 3.1343 -0.11746 c2.4457 0.50068 4.1648 2.423 4.4328 4.9104 c0.083048 0.7696 0.085076 1.5497 0.093592 2.325 z M124.39200000000001 31.942 c0.12394 -2.391 0.20168 -4.784 0.29726 -7.176 l-0.047344 -0.0036328 c0 -1.0361 0.0048436 -2.0719 -0.00125 -3.108 c-0.0068752 -1.1321 0.023086 -2.2679 -0.060744 -3.3948 c-0.033633 -0.45084 -0.29812 -0.89756 -0.5144 -1.3172 c-0.19238 -0.37348 -0.54112 -0.38117 -0.92756 -0.28316 c-0.77324 0.19644 -1.1248 0.785 -1.2536 1.4642 c-0.30742 1.6178 -0.7218 3.2469 -0.75544 4.8784 c-0.066444 3.2331 0.077344 6.4712 0.17859 9.706 c0.019024 0.60272 0.22074 1.2055 0.3852 1.7952 c0.12312 0.44108 0.45488 0.70724 0.92192 0.74488 c0.49252 0.039688 0.89756 -0.14867 1.1394 -0.58652 c0.13894 -0.25152 0.25156 -0.5302 0.31109 -0.81008 c0.13406 -0.63148 0.29324 -1.2686 0.32688 -1.9094 z"></path></g>
			</g>
		</svg>
	