
        <svg xmlns="http://www.w3.org/2000/svg" xmlns:xlink="http://www.w3.org/1999/xlink" version="1.1" width="3300" 
        height="2853.0662907552987" viewBox="0 0 3300 2853.0662907552987">
			
			<g transform="scale(15) translate(10, 10)">
				<defs id="SvgjsDefs1248"></defs><g id="SvgjsG1249" featureKey="symbolFeature-0" transform="matrix(0.14157719798297427,0,0,0.14157719798297427,40.067350486952456,-4.299943465037976)" fill="#000000"><defs xmlns="http://www.w3.org/2000/svg"></defs><g xmlns="http://www.w3.org/2000/svg"><path class="fil0" d="M380.62 674.04c4.87,11.42 12.3,21.63 22.27,29.27l-17.34 65.91c-13.14,49.98 -86.32,27.71 -74.1,-19.53l17.12 -66.17c12.52,-1.66 24.02,-6.59 33.9,-14.06l-20.96 79.67c-3.13,11.92 14.97,16.67 18.1,4.77l21.01 -79.86zm-83.25 -144.92c13.83,3.7 29.83,-11.18 35.75,-33.26 5.91,-22.07 -0.51,-42.96 -14.34,-46.67 -13.83,-3.7 -29.83,11.18 -35.75,33.25 -5.91,22.08 0.51,42.97 14.34,46.68zm226.58 -56.61c-14.32,0 -25.93,18.53 -25.93,41.38 0,22.85 11.61,41.37 25.93,41.37 14.32,0 25.92,-18.52 25.92,-41.37 0,-22.85 -11.6,-41.38 -25.92,-41.38zm104.59 154.83c-2.8,12.43 -5.64,24.56 -8.83,33.94 -7.05,17.42 -6.41,16.26 -22.13,3.7 -12.52,-10.02 -18.04,-10.77 -24.61,4.99 -12.92,31 -35.96,64.18 -61.82,86.13 0.65,-6.04 1.86,-13.01 1.46,-18.95 -0.74,-10.94 -5.32,-14.58 -15,-12.49 -8.73,1.89 -41.87,25.95 -52.01,30.77 -8.81,4.2 -16.08,7.8 -22.93,0.01 -4.13,-4.69 -7.84,-7.58 -11.69,-9.31l9.31 -35.36c43.61,16.85 85.51,-17.79 97.39,-58.69 3.42,-11.82 -14.54,-17.02 -17.96,-5.21 -20.66,71.14 -108.22,62.52 -105.62,-11.55 18.9,1.82 34.78,-4.34 38.32,-16.15 4.41,-14.74 -12.07,-32.69 -36.8,-40.09 -24.74,-7.4 -48.37,-1.46 -52.78,13.28 -3.94,13.16 8.79,28.88 29.17,37.37 -35.31,65.55 -114.69,28.47 -97.07,-43.15 2.94,-11.96 -15.24,-16.42 -18.17,-4.47 -10.06,40.83 7.89,90.62 53.05,99.22l-13.54 52.34c-3.29,-1.98 -6.7,-5.31 -11.15,-9.87 -11.81,-12.1 -39.41,-50.99 -45.97,-53.12 -7.6,-2.5 -11.2,0.46 -13.6,7.84 -3.33,10.23 -0.04,19.53 -7.1,7.41 -9.95,-17.06 -14.02,-28.65 -14.64,-48.88 -0.49,-16.01 -0.15,-32.28 -1.1,-48.21 -0.67,-11.14 -4.42,-24.52 -18.65,-16.01 -2.05,1.22 -3.88,2.34 -5.94,3.6 -18.52,11.32 -9.35,-7.19 -5.24,-21.67 2.29,-8.08 5.02,-16.64 7.76,-25.22 10.84,-10.9 29.63,-37.67 33.33,-51.22 1.47,-5.37 0.25,-10.55 -6.37,-9.5 -10.12,1.63 -31.93,17.68 -41.44,23.84 -1.18,0.76 -1.11,0.59 -0.87,-0.02 43.82,-109.54 100.66,-174.57 237.39,-136.82 3.92,1.08 9.97,0.51 7.24,-5.41 -0.92,-1.99 -3.21,-4.71 -6.38,-7.71 -2.12,-2 -4.69,-4.18 -7.64,-6.43 -4.72,-8.72 -24.87,-36.74 -5.73,-25.2 12.59,7.59 23.36,18.85 35.76,26 28.22,16.26 42.1,-39.29 59.87,-57.74 9.36,31.79 -32.2,74.51 -4.22,76.06 5.99,0.33 42.18,-17.11 48.51,-19.2 -2.81,8.59 -6.8,17.28 -10.45,25.55 -7.32,1.15 -23.68,4.48 -29.27,9.41 -4.58,4.06 -0.17,7.2 4.45,7.86 134.69,19.43 166.5,95.97 162.54,220.59 -0.02,0.6 -0.03,0.8 -0.65,-0.12 -6.84,-10.1 -19.22,-32.66 -28.55,-38.68 -5.83,-3.75 -8.9,0.95 -9.66,6.15 -2.03,13.93 4.45,46.06 10.03,60.39zm-222.58 137.88c0.84,0.71 1.71,1.57 2.63,2.61 13.28,15.06 27.9,12.71 45.07,4.54 10.96,-5.22 24.29,-14.15 34.48,-20.96 9.66,-6.47 2.52,4.19 3.93,16.09 2.49,20.76 20,12.24 30.39,3.56 27.51,-22.98 51.44,-57.11 65.94,-89.53 14.61,11.5 30.86,19.93 42.99,-0.37 32.72,12.89 84.98,35 113.28,7.27 18.09,-17.74 29.45,-50 31.46,-74.57 3.15,-38.49 -14.66,-50.28 -52.45,-54.21 2.04,-14.41 0.24,-29.72 -2.93,-43.85 7.05,-23.82 10.82,-48.88 10.82,-74.72 0,-131.17 -95.76,-238.32 -220.49,-268.36 0.32,-1.37 0.7,-2.91 1.1,-4.53l0 -0.01c7.8,-31.86 3.29,-69.07 -19.09,-94.43 -8.79,-9.93 -6.31,9.12 -5.76,12.43 0.75,4.55 5.08,36.97 -2.93,36.78 -8.65,-0.22 -1.66,-58.09 -29.38,-77.81 -20.03,-14.27 -46.65,-17.74 -70.25,-12.41 -17.52,3.95 -23.18,10.03 -5.3,15.63 15.18,4.69 51.61,31.28 15.9,17.93 -25.86,-9.66 -45.36,-13.98 -72.95,-8.66 -7.99,1.55 -38.5,8.95 -21.69,22.13 36.66,28.76 87.98,26.93 116.02,85.15 -121.69,8.47 -231.18,89.68 -262.6,209.25 -41.47,46.51 -49.45,79 -10.76,132.49 5.49,7.61 11.45,15.38 17.79,22.34l-1.18 3.73c-9.64,-2.42 -19.26,-5.29 -28.96,-7.36 -21.89,-4.66 -36.41,4.13 -48.47,21.73 -20.73,30.21 -16.13,102.73 18.6,119.85 23.3,11.51 65.4,8.68 87.84,-0.13 4.29,13.67 14.91,34.17 24.19,44.34 13.34,14.62 23.99,3.79 27.29,-11.94 9.76,12.79 20,26.13 31.22,37.63 7.4,7.57 13.77,12.77 20.17,15.54 -9.3,65.87 92.97,93.1 111.78,21.59l2.3 -8.76zm-39.52 -445.74c-66.33,-27.47 -128.26,-20.17 -182.7,25.93 42.87,-101.11 146.01,-162.48 254.81,-162.48 144.56,0 274.26,109.14 274.26,258.15 0,13.38 -1.08,26.51 -3.15,39.3 -30.17,-77.18 -83.88,-119.5 -168.91,-120.12 3.23,-7.51 6.85,-15.82 8.72,-23.71 3.9,-16.59 -6.39,-23.48 -21.82,-19.17 -8.07,2.25 -20.47,7.7 -30.56,12.3 1.82,-4.43 3.67,-9.16 5.15,-13.72 4.6,-14.25 7.71,-44.37 -6.38,-54.7 -20.43,-14.94 -43.77,33.83 -50.64,45.44 -2.25,3.79 -7.9,13.91 -10.11,15.5 -0.28,0.2 -30.73,-24.45 -35.25,-27.18 -32.1,-19.35 -44.98,-2.54 -33.42,24.46zm352.01 258.45c28.68,2.89 41.41,4.77 38.99,34.47 -1.63,20.02 -11.23,48.32 -25.89,62.69 -19.88,19.48 -69.16,-1.8 -92.98,-11.23 2.68,-8.57 5.1,-18.67 7.47,-29.08 24.37,-10.65 61.04,-32.07 72.41,-56.85zm-532.82 70.07c-18.76,7.81 -56.3,11.99 -76.18,2.17 -23.74,-11.69 -25.78,-71.59 -11.42,-92.52 8.23,-12 15.42,-16.87 29.13,-13.95 9.13,1.95 18.33,4.61 27.42,6.97 -2.39,8.52 -4.19,16.26 -4.85,22.5 -2.62,24.74 11.27,35.68 34.52,21.45 0.54,14.3 0.44,28.64 0.88,42.94 0.12,3.88 0.27,7.3 0.5,10.44z" style="fill: #000000;"></path></g></g><g id="SvgjsG1250" featureKey="nameFeature-0" transform="matrix(1.1049723756906078,0,0,1.1049723756906078,-3.0055251569379102,118.00552566275412)" fill="#000000"><path d="M27.24 40 l-7.08 0 l0 -12.04 l-10.32 0 l0 12.04 l-7.12 0 l0 -28.24 l7.16 0 l0 10.2 l10.28 0 l0 -10.2 l7.08 0 l0 28.24 z M51.04 40 l-6.04 0 l0 -1.88 c-0.44 0.32 -0.84 0.6 -1.28 0.88 c-0.76 0.52 -2.52 1.56 -5.12 1.56 c-3.76 0 -5.48 -2.04 -6.16 -3.44 c-0.44 -0.88 -0.68 -1.92 -0.68 -2.92 c0 -3.76 3.36 -5.56 4.28 -5.96 c1.56 -0.68 4.4 -1.24 8.36 -1.96 l0 -1.16 c0 -0.72 -0.12 -2.52 -2.36 -2.52 c-1.8 0 -2.64 0.84 -2.96 1.52 c-0.08 0.16 -0.2 0.48 -0.28 0.92 l-6.16 0 c0.08 -0.84 0.12 -2.64 1.68 -4.2 c1.72 -1.68 4 -2 4.72 -2.12 c1.2 -0.16 2.2 -0.16 2.68 -0.16 c2.92 0 6.88 0.68 8.28 3.68 c0.24 0.56 0.44 1.12 0.44 2.32 l0 12.2 c0 1.8 0.08 2.48 0.6 3.24 z M44.4 30 l-3.96 1.32 c-0.24 0.08 -0.48 0.16 -0.72 0.28 c-1.52 0.64 -1.92 1.52 -1.92 2.32 c0 0.12 0.04 0.56 0.24 0.96 c0.24 0.4 0.84 1.16 2.12 1.16 c1.12 0 2.08 -0.64 2.36 -0.84 c1.8 -1.28 1.88 -3.24 1.88 -5.2 z M76.32 29.52 c-0.04 3.56 -1.16 5.92 -1.92 7.12 c-1.16 1.76 -2.6 2.68 -3.28 3 s-1.92 0.76 -3.88 0.76 c-2.2 0 -3.32 -0.64 -5.12 -1.76 l0 8.6 l-6.24 0 l0 -28.12 l5.48 0 l0.04 2.04 c0.32 -0.4 0.44 -0.6 0.88 -0.92 c0.76 -0.64 2.4 -1.6 4.96 -1.6 c1.2 0 4 0.2 6.28 2.64 c2.12 2.24 2.8 5.32 2.8 8.24 z M70.4 29.439999999999998 c0 -0.6 0.08 -3.32 -1.44 -5.12 c-0.48 -0.56 -1.12 -1 -1.84 -1.2 c-0.4 -0.12 -0.72 -0.12 -0.88 -0.12 c-2.28 0 -4.4 2.08 -4.4 6.6 c0 0.44 -0.08 2.96 1.08 4.68 c0.32 0.44 0.72 0.84 1.2 1.12 c0.28 0.2 1 0.56 1.96 0.56 c2.12 0 2.96 -1.52 3.32 -2.16 c0.48 -0.88 1 -2.12 1 -4.36 z M100.48 29.52 c-0.04 3.56 -1.16 5.92 -1.92 7.12 c-1.16 1.76 -2.6 2.68 -3.28 3 s-1.92 0.76 -3.88 0.76 c-2.2 0 -3.32 -0.64 -5.12 -1.76 l0 8.6 l-6.24 0 l0 -28.12 l5.48 0 l0.04 2.04 c0.32 -0.4 0.44 -0.6 0.88 -0.92 c0.76 -0.64 2.4 -1.6 4.96 -1.6 c1.2 0 4 0.2 6.28 2.64 c2.12 2.24 2.8 5.32 2.8 8.24 z M94.56 29.439999999999998 c0 -0.6 0.08 -3.32 -1.44 -5.12 c-0.48 -0.56 -1.12 -1 -1.84 -1.2 c-0.4 -0.12 -0.72 -0.12 -0.88 -0.12 c-2.28 0 -4.4 2.08 -4.4 6.6 c0 0.44 -0.08 2.96 1.08 4.68 c0.32 0.44 0.72 0.84 1.2 1.12 c0.28 0.2 1 0.56 1.96 0.56 c2.12 0 2.96 -1.52 3.32 -2.16 c0.48 -0.88 1 -2.12 1 -4.36 z M121.64 19.12 l-7.36 22.56 c-0.48 1.48 -0.96 2.76 -2.04 3.92 c-1.32 1.36 -2.52 1.6 -4.36 1.6 l-4.44 0 l0 -4.92 l2.8 0 c1.44 0 1.92 -0.8 1.92 -1.52 c0 -0.56 -0.12 -1 -0.44 -2 c-0.2 -0.64 -0.4 -1.28 -0.6 -1.96 l-5.48 -17.68 l6.56 0 l3.44 14.96 l3.44 -14.96 l6.56 0 z M148.28 11.760000000000002 l-9.8 28.24 l-7.2 0 l-9.68 -28.24 l7.52 0 l5.84 20.08 l5.8 -20.08 l7.52 0 z M169.23999999999998 30.84 l-14.92 0 c0 0.2 -0.04 0.68 0.08 1.24 c0.48 2.44 2.2 3.96 4.68 3.96 c0.36 0 1.16 -0.04 2 -0.36 c2.08 -0.72 3 -2.84 3.28 -3.36 l4.64 2.4 c-0.84 1.24 -1.28 1.8 -1.76 2.36 c-3.08 3.4 -7.08 3.68 -8.64 3.68 c-0.64 0 -2.12 -0.04 -3.76 -0.56 c-4.64 -1.44 -6.8 -5.52 -6.8 -10.24 c0 -1.28 0.08 -5.16 2.68 -8.16 c1.28 -1.44 3.48 -3.32 8.04 -3.32 c1.4 0 5.56 0.16 8.16 3.8 c2.36 3.24 2.28 7.56 2.32 8.56 z M162.88 27 c-0.08 -0.68 -0.2 -2.8 -2.28 -3.72 c-0.84 -0.4 -1.52 -0.4 -1.88 -0.4 c-2.44 0 -3.56 1.8 -3.88 2.52 c-0.16 0.36 -0.32 0.8 -0.48 1.6 l8.52 0 z M183.71999999999997 23.4 l-4.08 0 l0 9.36 c0 0.84 -0.04 1.32 0.16 1.68 c0.36 0.68 1.32 0.68 1.44 0.68 c0.72 0 1.44 -0.04 2.16 -0.04 l0 4.76 c-0.4 0.08 -1.84 0.32 -3.24 0.32 c-0.44 0 -0.88 0 -1.28 -0.04 c-0.56 -0.04 -2.4 0 -3.8 -1.28 c-1.6 -1.4 -1.52 -3.52 -1.52 -5.44 l0 -10.04 l-3.04 0 l0 -3.76 l3.04 0 l0 -6.52 l6.08 0 l0 6.56 l4.08 0 l0 3.76 z"></path></g>
			</g>
		</svg>
	